<svg xmlns="http://www.w3.org/2000/svg" viewBox="0 0 20.799 20.65">
<defs><style>.cls-1{fill:#A31010}</style></defs>
<g><path id="Path_8" data-name="Path 8" class="cls-1" d="M-11.676,3.65V-9.993h-4.249V3.65h4.249Zm0-18.488A2.074,2.074,0,0,0-13.838-17,2.035,2.035,0,0,0-16-14.838a2.074,2.074,0,0,0,2.162,2.162h0A2.074,2.074,0,0,0-11.676-14.838ZM-4.743,3.65V-4.178A2.546,2.546,0,0,1-4.594-5.3,2.555,2.555,0,0,1-2.209-7.011,2.568,2.568,0,0,1,.55-4.178V3.575H4.8v-7.9c0-4.249-2.311-6.262-5.293-6.262A4.626,4.626,0,0,0-4.818-8.278v-1.789H-9.067c.075,1.342,0,13.717,0,13.717h4.324Z" transform="translate(16 17)"/></g>
</svg>