<svg xmlns="http://www.w3.org/2000/svg" width="22.574" height="27.898" viewBox="0 0 22.574 27.898">
<path id="XMLID_1_" d="M11.664,0C4.049,0,0,4.9,0,10.242c0,2.477,1.379,5.568,3.586,6.548.334.151.517.086.592-.226.065-.237.355-1.379.5-1.917a.493.493,0,0,0-.118-.485,6.374,6.374,0,0,1-1.314-3.856c0-3.726,2.951-7.345,7.97-7.345,4.34,0,7.377,2.832,7.377,6.882,0,4.577-2.412,7.744-5.546,7.744a2.491,2.491,0,0,1-2.617-3.059c.5-2.014,1.465-4.179,1.465-5.633a2.159,2.159,0,0,0-2.229-2.38c-1.766,0-3.2,1.755-3.2,4.114a5.892,5.892,0,0,0,.528,2.509s-1.745,7.087-2.068,8.411a18.877,18.877,0,0,0,.129,6.182.184.184,0,0,0,.334.086A21.989,21.989,0,0,0,8.261,22.38c.215-.8,1.1-4.028,1.1-4.028a4.793,4.793,0,0,0,4.049,1.939c5.32,0,9.165-4.7,9.165-10.522C22.552,4.179,17.792,0,11.664,0" fill="#fff"/>
</svg>