<?xml version="1.0" encoding="utf-8"?>
<!-- Generator: Adobe Illustrator 24.0.3, SVG Export Plug-In . SVG Version: 6.00 Build 0)  -->
<svg version="1.1" id="Layer_1" xmlns="http://www.w3.org/2000/svg" xmlns:xlink="http://www.w3.org/1999/xlink" x="0px" y="0px"
	 viewBox="0 0 319.55 80.74" style="enable-background:new 0 0 319.55 80.74;" xml:space="preserve">
<style type="text/css">
	.st0{fill:#FFFFFF;}
</style>
<g>
	<g>
		<path class="st0" d="M0.11,78.24c-0.02,1.96,0.94,2.51,2.56,2.5l83.95-0.14c3.9-0.05,7.75-0.68,11.47-1.91
			c3.89-1.28,7.35-3.24,9.97-6.47c2.84-3.5,4.01-7.6,4.14-12.02c0.07-2.44-0.09-4.88-0.1-7.31c-0.02-6.63-0.01-13.26-0.01-19.9
			c0-1.53-0.66-2.18-2.19-2.18l-14.63,0c-1.65,0-2.28,0.63-2.28,2.29c0,7.42,0,14.85-0.01,22.27c0,0.85-0.05,1.71-0.15,2.56
			c-0.41,3.19-2.18,5.14-5.33,5.75c-1.17,0.23-2.38,0.29-3.57,0.29l-81.7,0.01c-1.63,0-2.25,0.62-2.23,2.25L0.11,78.24z"/>
		<path class="st0" d="M0.13,47.91c0,1.22,0.69,1.99,1.86,1.99l15.21,0c1.1,0,1.78-0.7,1.86-1.8c0.01-0.21,0.02-0.43,0.02-0.64
			c0.02-5.69,0.02-11.38,0.05-17.07c0.01-2.39-0.02-4.8,0.15-7.18c0.24-3.42,2.16-5.55,5.47-6.2c1.02-0.2,2.08-0.27,3.12-0.27
			l82.03-0.01c1.76,0,2.33-0.58,2.31-2.36l-0.14-12.13C112.07,0.61,111.45,0,109.82,0L28.75,0c-4.25,0-8.46,0.35-12.59,1.42
			c-3.73,0.96-7.2,2.46-10.1,5.07c-4.14,3.72-5.88,8.53-6.03,13.96c-0.1,3.53,0.08,7.06,0.1,10.59C0.15,36.66,0.13,42.28,0.13,47.91
			z"/>
	</g>
	<g>
		<path class="st0" d="M182.47,53.34c-12.31,0-24.53,0-36.87,0c0-1.22-0.03-2.37,0.01-3.51c0.05-1.47,0.8-2.4,2.23-2.75
			c0.72-0.17,1.49-0.24,2.23-0.24c10.52-0.01,21.05-0.01,31.57-0.01c0.28,0,0.55,0,0.79,0c0-1.48,0-2.86,0-4.27
			c-0.34,0-0.6,0-0.87,0c-5.84,0-27.37-0.02-32.3,0.02c-2.31,0.02-4.59,0.29-6.7,1.34c-1.71,0.85-2.98,2.16-3.06,4.11
			c-0.14,3.17-0.04,6.35-0.04,9.6c12.28,0,24.52,0,36.77,0c0,1.39,0.08,2.72-0.03,4.03c-0.08,1.04-0.74,1.83-1.76,2.12
			c-0.79,0.23-1.64,0.37-2.47,0.37c-10.57,0.02-21.14,0.02-31.7,0.02c-0.28,0-0.56,0-0.83,0c0,1.47,0,2.85,0,4.27
			c0.32,0,0.58,0,0.84,0c5.06,0,26.2,0.01,31.7-0.01c2.26-0.01,4.51-0.2,6.64-1.04c2.67-1.05,3.88-2.84,3.88-5.7
			c0-2.54-0.01-5.09-0.01-7.63C182.5,53.83,182.48,53.6,182.47,53.34z"/>
		<path class="st0" d="M313.67,45.23c-0.76-0.41-1.55-0.76-2.35-1.05c-3.58-1.28-7.31-1.62-11.08-1.64
			c-3.92-0.03-7.81,0.24-11.57,1.49c-5.6,1.86-8.43,5.53-8.57,11.23c-0.12,4.83,1.85,8.51,6.25,10.72c0.79,0.39,1.61,0.72,2.45,1
			c3.57,1.18,7.26,1.44,10.98,1.45c0.4,0,0.8,0.01,1.19,0c3.61-0.1,7.19-0.44,10.6-1.73c3.32-1.25,5.96-3.24,7.24-6.7
			c0.63-1.71,0.82-3.48,0.73-5.28C319.32,50.49,317.45,47.26,313.67,45.23z M309.3,62.51c-2.11,0.94-4.34,1.34-6.62,1.48
			c-3.63,0.23-7.25,0.22-10.77-0.88c-1.06-0.33-2.1-0.83-3.05-1.41c-4.28-2.6-4.29-9.83,0.04-12.51c2.02-1.25,4.25-1.82,6.57-2.09
			c1.45-0.17,2.91-0.21,3.77-0.27c3.45,0.06,6.29,0.21,9.01,1.18c2.43,0.86,4.45,2.24,5.23,4.85
			C314.53,56.35,313.79,60.5,309.3,62.51z"/>
		<path class="st0" d="M224.84,45.65c-1.2-0.71-2.52-1.3-3.85-1.73c-4-1.3-8.15-1.47-12.32-1.37c-3.5,0.08-6.96,0.48-10.26,1.74
			c-3.27,1.25-5.85,3.26-7.11,6.66c-0.69,1.88-0.84,3.84-0.69,5.81c0.28,3.69,1.89,6.64,5.11,8.57c1.11,0.66,2.31,1.2,3.54,1.62
			c3.55,1.22,7.26,1.45,11.55,1.49c0.75-0.03,2.08-0.06,3.4-0.16c3.01-0.24,5.96-0.73,8.75-1.95c3.21-1.41,5.57-3.61,6.58-7.07
			c0.48-1.66,0.58-3.35,0.45-5.05C229.69,50.51,228.06,47.57,224.84,45.65z M219.91,62.45c-2.13,1.01-4.41,1.4-6.74,1.54
			c-3.63,0.22-7.25,0.19-10.77-0.87c-0.67-0.2-1.33-0.47-1.97-0.78c-2.9-1.43-4.32-3.78-4.27-7.03c0.05-3.17,1.55-5.4,4.38-6.77
			c2.14-1.04,4.45-1.41,6.8-1.58c0.99-0.07,1.99-0.01,2.98-0.01c2.86-0.06,5.7,0.09,8.43,1.06c2.22,0.79,4.08,2.01,5.04,4.28
			C225.48,56.32,223.86,60.59,219.91,62.45z"/>
		<path class="st0" d="M275.56,64.09c-6.83-0.01-13.66,0.02-20.49-0.04c-2.84-0.02-5.64-0.43-8.24-1.71
			c-2.85-1.41-4.27-3.71-4.26-6.9c0.01-3.17,1.44-5.44,4.26-6.84c0.59-0.29,1.21-0.53,1.84-0.73c2.53-0.82,5.15-1,7.79-1.01
			c6.39-0.03,12.78-0.02,19.16-0.02c0.26,0,0.51,0,0.77,0c0-1.48,0-2.86,0-4.27c-0.23-0.01-0.43-0.03-0.62-0.03c-6.5,0-13,0-19.49,0
			c-2.61,0-5.21,0.18-7.77,0.71c-2.82,0.58-5.48,1.52-7.75,3.37c-4.61,3.75-4.45,10.87-2.57,14.55c1.43,2.8,3.81,4.47,6.66,5.54
			c3.65,1.37,7.47,1.72,11.33,1.73c6.5,0.02,13,0,19.49,0c0.24,0,0.47,0,0.73,0c0-1.47,0-2.85,0-4.34
			C276.08,64.09,275.82,64.09,275.56,64.09z"/>
		<path class="st0" d="M276.4,13.75c-1.54-0.96-3.23-1.41-5.03-1.42c-2.47-0.01-4.95,0-7.42,0c-0.89,0-0.89,0-0.89,0.87
			c0,5.52,0,11.05,0,16.57c0,1.67,0,1.64,1.69,1.67c0.62,0.01,0.8-0.2,0.79-0.8c-0.03-1.66-0.01-3.31-0.01-4.97
			c0-0.3,0-0.61,0.42-0.6c2.03,0.02,4.07-0.2,6.03,0.54c2.18,0.82,3.92,2.11,4.73,4.39c0.16,0.46,0.17,1.14,0.49,1.34
			c0.39,0.24,1.03,0.05,1.55,0.09c0.52,0.04,0.65-0.2,0.6-0.68c-0.16-1.33-0.6-2.57-1.51-3.54c-0.92-0.99-1.98-1.85-2.97-2.77
			c0.45-0.23,1.01-0.49,1.53-0.81C280.36,21.17,280.35,16.24,276.4,13.75z M275.44,21.7c-1.18,1-2.58,1.43-4.1,1.45
			c-1.72,0.02-3.45,0-5.17,0.01c-0.47,0-0.66-0.15-0.65-0.65c0.01-0.32,0.01-0.64,0.01-0.96c0.01-0.96,0-1.92,0-2.88
			c0-1.26,0.02-2.52-0.01-3.78c-0.01-0.45,0.13-0.64,0.6-0.64c1.99,0.03,3.98-0.01,5.96,0.08c1.26,0.06,2.4,0.57,3.37,1.39
			C277.42,17.4,277.42,20.02,275.44,21.7z"/>
		<path class="st0" d="M257.41,12.32c-4.93,0.02-9.86,0.02-14.79,0c-0.62,0-0.8,0.2-0.79,0.8c0.03,2.92,0.01,5.83,0.01,8.75
			c0,2.2,0.01,4.41,0,6.61c0,0.73-0.01,1.47-0.01,2.2c0,0.59,0.19,0.76,0.77,0.75c2.65-0.03,5.3-0.01,7.96-0.01
			c2.3,0,4.6,0,6.9-0.01c0.22,0,0.61-0.09,0.63-0.18c0.06-0.5,0.11-1.02-0.01-1.5c-0.03-0.14-0.61-0.2-0.94-0.2c-4-0.01-8-0.02-12,0
			c-0.61,0-0.86-0.14-0.84-0.81c0.05-1.66,0.05-3.32,0-4.97c-0.02-0.67,0.18-0.87,0.86-0.86c2.72,0.03,5.44,0.02,8.16,0.01
			c0.23,0,0.64-0.05,0.66-0.14c0.09-0.49,0.14-1,0.07-1.49c-0.02-0.13-0.5-0.28-0.76-0.29c-2.76-0.02-5.53-0.02-8.29-0.01
			c-0.5,0-0.7-0.14-0.69-0.68c0.03-1.66,0.01-3.32,0.01-4.97c0-1.09,0-1.09,1.06-1.09c2.5,0,5,0,7.49,0c1.55,0,3.09-0.01,4.64,0
			c0.47,0,0.71-0.15,0.65-0.65c-0.02-0.17-0.02-0.36,0-0.53C258.24,12.48,257.99,12.32,257.41,12.32z"/>
		<path class="st0" d="M235.88,14.49c-1.71-1.49-3.75-2.13-5.98-2.15c-2.54-0.03-5.08,0.01-7.63-0.02
			c-0.63-0.01-0.78,0.21-0.77,0.81c0.01,1.46,0.02,2.92,0.02,4.38c0,1.46,0,2.92,0,4.38c0,2.61,0,5.22,0,7.82
			c0,1.75,0,1.73,1.74,1.74c0.57,0,0.72-0.21,0.71-0.74c-0.02-1.61,0.02-3.23-0.02-4.84c-0.02-0.65,0.22-0.83,0.84-0.82
			c1.77,0.03,3.54,0.04,5.3,0c2.14-0.05,4.08-0.69,5.73-2.1C238.53,20.63,238.56,16.84,235.88,14.49z M233.91,21.71
			c-1.2,1.01-2.62,1.42-4.17,1.44c-1.7,0.02-3.4-0.01-5.1,0.01c-0.51,0.01-0.71-0.17-0.69-0.69c0.01-0.63,0.02-1.26,0.02-1.89
			c0-0.63-0.01-1.26-0.01-1.89c0-0.64,0-1.28,0-1.92c0-0.64,0-1.28-0.01-1.92c-0.01-0.41,0.13-0.62,0.56-0.61
			c2.01,0.03,4.02,0,6.02,0.08c1.26,0.05,2.4,0.56,3.37,1.38C235.92,17.37,235.92,20.03,233.91,21.71z"/>
		<path class="st0" d="M214.33,12.32c-0.63-0.02-0.79,0.21-0.78,0.8c0.02,3.89-0.01,7.78,0.02,11.67c0.01,1.57-0.65,2.74-1.9,3.57
			c-1.95,1.31-4.08,1.48-6.27,0.71c-2.23-0.79-3.26-2.31-3.26-4.67c0-3.47,0-6.94,0-10.41c0-1.68,0-1.66-1.68-1.68
			c-0.57-0.01-0.78,0.15-0.77,0.75c0.03,2.05,0.01,4.11,0.01,6.17c0,1.88,0.03,3.76-0.01,5.63c-0.03,1.92,0.73,3.45,2.21,4.59
			c2.87,2.2,6.07,2.51,9.41,1.38c3.24-1.1,4.7-3.29,4.7-6.71c0-3.36,0.01-6.72,0-10.08C216.03,12.03,216.32,12.38,214.33,12.32z"/>
		<path class="st0" d="M193.1,22.4c-0.48-0.38-1.04-0.67-1.6-0.92c-1.38-0.64-2.87-0.66-4.35-0.66c-0.62,0-1.24,0.05-1.85-0.01
			c-1.96-0.2-3.45-1.82-3.33-3.54c0.1-1.38,1.37-2.65,3.07-2.95c2.52-0.44,4.89,0.15,7.07,1.39c1.35,0.77,1.32,0.46,2.19-0.2
			c0.58-0.44,0.57-0.55-0.04-0.94c-2.77-1.73-5.78-2.51-9.03-2.23c-1.7,0.15-3.19,0.85-4.38,2.12c-1.69,1.8-1.7,4.28-0.03,6.1
			c0.96,1.04,2.15,1.76,3.53,1.96c1.43,0.21,2.9,0.21,4.35,0.27c1.22,0.05,2.3,0.44,3.17,1.3c1.09,1.08,1.17,2.65,0.19,3.84
			c-0.74,0.9-1.71,1.39-2.85,1.52c-2.41,0.27-4.64-0.33-6.75-1.48c-1.06-0.58-1.05-0.59-2.03,0.18c-0.64,0.5-0.64,0.62,0.03,1.03
			c2.48,1.55,5.2,2.32,8.12,2.24c1.66-0.04,3.27-0.49,4.54-1.6C195.55,27.67,195.96,24.64,193.1,22.4z"/>
	</g>
</g>
</svg>
